<?xml version="1.0" standalone="no"?><svg xmlns="http://www.w3.org/2000/svg" viewBox="0 0 1440 320"><path fill="#f3f4f5" fill-opacity="1" d="M0,64L14.1,74.7C28.2,85,56,107,85,128C112.9,149,141,171,169,160C197.6,149,226,107,254,96C282.4,85,311,107,339,133.3C367.1,160,395,192,424,218.7C451.8,245,480,267,508,272C536.5,277,565,267,593,240C621.2,213,649,171,678,160C705.9,149,734,171,762,197.3C790.6,224,819,256,847,266.7C875.3,277,904,267,932,229.3C960,192,988,128,1016,112C1044.7,96,1073,128,1101,160C1129.4,192,1158,224,1186,224C1214.1,224,1242,192,1271,170.7C1298.8,149,1327,139,1355,117.3C1383.5,96,1412,64,1426,48L1440,32L1440,0L1425.9,0C1411.8,0,1384,0,1355,0C1327.1,0,1299,0,1271,0C1242.4,0,1214,0,1186,0C1157.6,0,1129,0,1101,0C1072.9,0,1045,0,1016,0C988.2,0,960,0,932,0C903.5,0,875,0,847,0C818.8,0,791,0,762,0C734.1,0,706,0,678,0C649.4,0,621,0,593,0C564.7,0,536,0,508,0C480,0,452,0,424,0C395.3,0,367,0,339,0C310.6,0,282,0,254,0C225.9,0,198,0,169,0C141.2,0,113,0,85,0C56.5,0,28,0,14,0L0,0Z"></path></svg>