<?xml version="1.0" standalone="no"?><svg xmlns="http://www.w3.org/2000/svg" viewBox="0 0 1440 320"><path fill="#f3f4f5" fill-opacity="1" d="M0,64L14.1,74.7C28.2,85,56,107,85,128C112.9,149,141,171,169,160C197.6,149,226,107,254,96C282.4,85,311,107,339,133.3C367.1,160,395,192,424,218.7C451.8,245,480,267,508,272C536.5,277,565,267,593,240C621.2,213,649,171,678,160C705.9,149,734,171,762,197.3C790.6,224,819,256,847,266.7C875.3,277,904,267,932,229.3C960,192,988,128,1016,112C1044.7,96,1073,128,1101,160C1129.4,192,1158,224,1186,224C1214.1,224,1242,192,1271,170.7C1298.8,149,1327,139,1355,117.3C1383.5,96,1412,64,1426,48L1440,32L1440,320L1425.9,320C1411.8,320,1384,320,1355,320C1327.1,320,1299,320,1271,320C1242.4,320,1214,320,1186,320C1157.6,320,1129,320,1101,320C1072.9,320,1045,320,1016,320C988.2,320,960,320,932,320C903.5,320,875,320,847,320C818.8,320,791,320,762,320C734.1,320,706,320,678,320C649.4,320,621,320,593,320C564.7,320,536,320,508,320C480,320,452,320,424,320C395.3,320,367,320,339,320C310.6,320,282,320,254,320C225.9,320,198,320,169,320C141.2,320,113,320,85,320C56.5,320,28,320,14,320L0,320Z"></path></svg>